<?xml version="1.0" encoding="UTF-8"?>
<svg width="240px" height="149px" viewBox="0 0 240 149" version="1.1" xmlns="http://www.w3.org/2000/svg" xmlns:xlink="http://www.w3.org/1999/xlink">
    <!-- Generator: Sketch 52.4 (67378) - http://www.bohemiancoding.com/sketch -->
    <title>Logo</title>
    <desc>Created with Sketch.</desc>
    <defs>
        <polygon id="path-1" points="0.0402234637 0.482412556 84.0697207 0.482412556 84.0697207 63.0263318 0.0402234637 63.0263318"></polygon>
        <polygon id="path-3" points="-9.09494702e-13 -1.13686838e-13 15.4189944 -1.13686838e-13 15.4189944 10.6504933 -9.09494702e-13 10.6504933"></polygon>
    </defs>
    <g id="District" stroke="none" stroke-width="1" fill="none" fill-rule="evenodd">
        <g id="Desktop-HD" transform="translate(-150.000000, -40.000000)">
            <g id="Logo" transform="translate(150.000000, 40.000000)">
                <g>
                    <g id="Group-3" transform="translate(0.000000, 65.479821)">
                        <mask id="mask-2" fill="white">
                            <use xlink:href="#path-1"></use>
                        </mask>
                        <g id="Clip-2"></g>
                        <path d="M42.6348603,39.5852242 L27.1226816,3.17643946 C26.3222346,1.38042152 26.4227933,0.482412556 24.3197765,0.482412556 L5.70569832,0.482412556 C4.10346369,0.482412556 1.80201117,0.482412556 1.80201117,2.57709865 C1.80201117,4.5722287 4.60424581,4.27289238 6.1052514,4.37311659 C11.2096089,4.67312108 10.6089385,6.76713901 10.409162,11.2558475 L8.4073743,51.3548879 C8.20692737,55.0451435 8.60715084,58.337843 4.20402235,58.9358475 C2.70301676,59.1349596 0,59.235852 0,61.2296457 C0,62.8265516 1.20201117,63.0263318 2.50324022,63.0263318 C5.5052514,63.0263318 8.50793296,62.8265516 11.609162,62.8265516 C14.6118436,62.8265516 17.6138547,63.0263318 20.6178771,63.0263318 C21.9191061,63.0263318 23.6205587,62.6267713 23.6205587,60.9316457 C23.6205587,58.5369552 20.3175419,58.7367354 18.8158659,58.7367354 C13.110838,58.7367354 13.110838,54.3482511 13.3106145,49.7593184 L14.6118436,15.1458834 L33.227933,59.1349596 C33.9284916,60.9316457 34.3287151,62.327435 36.4303911,62.327435 C39.5336313,62.327435 39.8326257,59.6347444 40.6344134,57.2400538 L58.3494972,14.4476547 L59.0487151,51.7544484 C59.1492737,55.5449283 59.2484916,58.2376188 54.646257,58.7367354 C52.9448045,58.9358475 50.0420112,58.8369596 50.0420112,61.2296457 C50.0420112,62.9267758 51.6435754,63.0263318 52.9448045,63.0263318 C57.2487151,63.0263318 61.4513966,62.6267713 65.655419,62.6267713 C70.6598883,62.6267713 75.4625698,63.0263318 80.4670391,63.0263318 C81.8694972,63.0263318 84.0697207,63.0263318 84.0697207,61.0305336 C84.0697207,59.0367399 81.5684916,59.0367399 80.1667039,58.9358475 C78.4652514,58.8369596 77.1640223,58.5369552 76.3642458,56.8418296 C75.5637989,55.0451435 75.4625698,51.7544484 75.363352,49.8588744 L74.2625698,12.5527489 C74.1620112,8.66204484 73.6625698,4.67312108 78.4652514,4.37311659 C79.966257,4.27289238 82.5687151,4.5722287 82.5687151,2.57709865 C82.5687151,0.781748879 81.1682682,0.482412556 79.6672626,0.482412556 L60.3499441,0.482412556 C58.4487151,0.482412556 58.2482682,2.4775426 57.6482682,3.97422422 L42.6348603,39.5852242" id="Fill-1" fill="#FFFFFF" mask="url(#mask-2)"></path>
                    </g>
                    <path d="M109.718212,79.6288072 C109.718212,72.9458565 109.21743,70.9500583 116.02257,69.8529372 C117.224581,69.653157 118.825475,69.4540448 118.825475,67.857139 C118.825475,66.2615695 117.723352,65.9622332 116.322905,65.9622332 C111.620112,65.9622332 106.815419,66.3604574 102.010726,66.3604574 C96.8064804,66.3604574 91.803352,65.9622332 86.5991061,65.9622332 C85.196648,65.9622332 84.1964246,66.2615695 84.1964246,67.857139 C84.1964246,69.5529327 86.1988827,69.653157 87.3988827,69.8529372 C93.8037989,70.9500583 93.2037989,73.543861 93.2037989,79.6288072 L93.2037989,115.040027 C93.2037989,121.523865 93.5048045,123.219659 86.8981006,124.31678 C85.6981006,124.516561 84.1964246,125.013673 84.1964246,126.611247 C84.1964246,128.106592 85.196648,128.506152 86.5991061,128.506152 C91.4017877,128.506152 96.2058101,128.106592 101.010503,128.106592 C106.215419,128.106592 111.219218,128.506152 116.422793,128.506152 C117.723352,128.506152 118.825475,128.106592 118.825475,126.611247 C118.825475,124.814561 116.923575,124.516561 115.622346,124.31678 C109.316648,123.318547 109.718212,120.923857 109.718212,115.040027 L109.718212,79.6288072" id="Fill-4" fill="#FFFFFF"></path>
                    <path d="M161.089609,71.4491749 C161.089609,69.5529327 161.389944,67.9573632 159.488045,66.95913 C156.384804,65.3635605 149.979888,64.3653274 146.477095,64.3653274 C134.968492,64.3653274 120.455866,71.3489507 120.455866,84.5164081 C120.455866,94.4900538 130.163799,98.9787623 138.069721,102.271462 C144.27419,104.765709 152.98257,107.158395 152.98257,115.239139 C152.98257,122.420538 145.676648,125.812794 139.37095,125.812794 C135.66838,125.812794 131.764022,124.914785 128.962458,122.220758 C126.561117,119.828072 125.860559,117.134045 124.959553,113.942906 C124.458771,112.247112 123.958659,109.254417 121.557318,109.254417 C119.154637,109.254417 119.55419,113.044229 119.55419,114.641135 L119.55419,120.12674 C119.55419,123.418771 119.253855,124.715673 122.458324,126.310574 C126.760894,128.406596 134.566257,129.603274 139.37095,129.603274 C146.076872,129.603274 152.582346,127.90748 157.786592,123.617883 C162.490056,119.626955 165.793743,113.942906 165.793743,107.657511 C165.793743,96.0869596 157.88648,91.0009148 147.878212,87.8071031 L142.773184,86.1113094 C138.469944,84.7155202 133.566034,82.7203901 133.566034,77.434565 C133.566034,71.6489552 139.671955,68.4551435 144.876201,68.4551435 C151.480894,68.4551435 154.483575,73.7429731 156.384804,79.3288027 C156.785698,80.625704 157.387039,82.0214933 159.087821,82.0214933 C161.290056,82.0214933 161.089609,79.8285874 161.089609,78.2310135 L161.089609,71.4491749" id="Fill-5" fill="#FFFFFF"></path>
                    <path d="M192.626816,77.1345605 C192.626816,70.3513857 192.726704,68.7558161 199.933408,68.7558161 C214.745028,68.7558161 222.050279,82.9195022 222.050279,96.1858475 C222.050279,102.570798 220.549274,110.051534 216.846034,115.338695 C213.243352,120.724744 207.138101,124.715673 200.532737,124.715673 C192.225251,124.715673 192.626816,118.829839 192.626816,112.14622 L192.626816,77.1345605 Z M176.113073,114.540242 C176.113073,121.223861 176.512626,122.820767 170.107709,124.31678 C168.80648,124.61478 167.305475,124.715673 167.305475,126.310574 C167.305475,127.90748 168.406927,128.506152 169.708156,128.506152 C171.608715,128.506152 173.611173,128.106592 175.411844,128.106592 C183.818547,128.106592 192.225251,128.506152 200.632626,128.506152 C219.549721,128.506152 239.465028,116.036924 239.465028,95.488287 C239.465028,85.1144126 234.060335,76.4356637 225.353966,70.9500583 C217.04581,65.7631211 208.139665,64.3653274 198.53095,64.3653274 C194.128492,64.3653274 167.004469,65.3635605 167.004469,69.9538296 C167.004469,72.2469596 169.207374,71.6489552 170.70838,71.5480628 C176.413408,71.1498386 176.113073,74.6409821 176.113073,79.7283632 L176.113073,114.540242 Z" id="Fill-6" fill="#FFFFFF"></path>
                    <path d="M3.39150838,137.573771 C3.3077095,137.351274 3.29363128,137.170202 3.02882682,137.170202 L1.41318436,137.170202 C1.2596648,137.170202 1.00893855,137.101381 1.00893855,137.323879 C1.00893855,137.518314 1.20402235,137.545709 1.34346369,137.545709 C2.09564246,137.545709 2.15128492,137.629229 2.09564246,138.336812 L1.66391061,144.487906 C1.62167598,145.168762 1.58011173,145.528901 0.799776536,145.528901 C0.674413408,145.528901 0.437765363,145.543601 0.437765363,145.709973 C0.437765363,145.848951 0.535642458,145.876345 0.660335196,145.876345 C1.06458101,145.876345 1.48290503,145.820888 1.90055866,145.820888 C2.31821229,145.820888 2.73653631,145.876345 3.15418994,145.876345 C3.28022346,145.876345 3.46122905,145.876345 3.46122905,145.709973 C3.46122905,145.516206 3.16826816,145.528901 3.02882682,145.528901 C2.04,145.528901 2.05340782,144.82065 2.10972067,143.974758 L2.51396648,138.253291 L2.61117318,138.253291 L5.35575419,145.293709 C5.38324022,145.390592 5.42547486,145.556964 5.56424581,145.556964 C5.68960894,145.556964 5.73184358,145.404623 5.77340782,145.307072 L8.86592179,138.086919 L8.96379888,138.086919 L8.96379888,144.376323 C8.96379888,144.626215 8.99195531,145.1407 8.75463687,145.335135 C8.60178771,145.460081 8.30949721,145.528901 8.1003352,145.528901 C7.96089385,145.528901 7.66793296,145.501507 7.66793296,145.709973 C7.66793296,145.862314 7.82145251,145.876345 7.93273743,145.876345 C8.47642458,145.876345 9.03351955,145.820888 9.59061453,145.820888 C10.0364246,145.820888 10.4822346,145.876345 10.9280447,145.876345 C11.0393296,145.876345 11.1928492,145.862314 11.1928492,145.709973 C11.1928492,145.501507 10.8998883,145.528901 10.7604469,145.528901 C10.5653631,145.528901 10.3568715,145.516206 10.2174302,145.349166 C10.0505028,145.154731 10.0639106,144.598821 10.0639106,144.376323 L10.0639106,138.642161 C10.0639106,138.392269 10.0082682,137.851058 10.1758659,137.657291 C10.3012291,137.503614 10.6075978,137.545709 10.7886034,137.545709 C10.9280447,137.545709 11.1231285,137.518314 11.1231285,137.323879 C11.1231285,137.101381 10.8724022,137.170202 10.7188827,137.170202 L9.17296089,137.170202 C9.01944134,137.170202 8.88,137.170202 8.79620112,137.351274 L5.92692737,143.904601 L3.39150838,137.573771" id="Fill-7" stroke="#FFFFFF" stroke-width="0.5" fill="#FFFFFF"></path>
                    <path d="M15.6610056,142.58565 C15.7025698,142.571619 15.7722905,142.530193 15.8138547,142.530193 C15.9532961,142.530193 15.9117318,142.863605 15.9117318,142.919063 L15.9117318,143.75226 C15.9117318,144.209951 15.8976536,144.44648 15.5631285,144.793256 C15.2292737,145.126668 14.7553073,145.349166 14.267933,145.349166 C13.7524022,145.349166 13.3065922,145.071879 13.3065922,144.529332 C13.3065922,143.863175 13.8496089,143.5017 14.3932961,143.225081 L15.6610056,142.58565 Z M14.3235754,142.947126 C13.5573184,143.321964 12.2621229,143.904601 12.2621229,144.890807 C12.2621229,145.585027 12.9164246,145.987928 13.5713966,145.987928 C14.7834637,145.987928 15.6884916,144.932233 15.8138547,144.932233 C16.0089385,144.932233 16.0786592,145.904408 16.7617877,145.904408 C17.1231285,145.904408 17.4724022,145.695942 17.7506145,145.501507 C17.8484916,145.417987 18.0851397,145.22422 18.0851397,145.071879 C18.0851397,145.015753 18.0435754,144.959628 17.987933,144.959628 C17.8625698,144.959628 17.7090503,145.307072 17.3604469,145.307072 C16.8589944,145.307072 16.8730726,144.501937 16.8730726,144.196587 L16.8730726,140.919924 C16.8730726,140.545085 16.9287151,140.18361 16.5948603,139.906323 C16.273743,139.614336 15.7582123,139.545516 15.3264804,139.545516 C14.4348603,139.545516 13.4875978,139.920354 12.8332961,140.503659 C12.5684916,140.725489 12.2480447,141.127722 12.2480447,141.488529 C12.2480447,141.627507 12.3177654,141.65557 12.4290503,141.65557 C12.5959777,141.65557 12.8889385,141.543987 13.0283799,141.475166 C13.2509497,141.377614 13.3206704,141.183179 13.4185475,140.975381 C13.738324,140.26713 14.1707263,139.809439 15.0201117,139.809439 C15.8835754,139.809439 15.9117318,140.378045 15.9117318,141.058233 L15.9117318,141.669601 C15.9117318,142.197448 15.8976536,142.210812 15.3962011,142.446673 L14.3235754,142.947126 Z" id="Fill-8" stroke="#FFFFFF" stroke-width="0.5" fill="#FFFFFF"></path>
                    <path d="M20.0460335,144.404386 C20.0460335,145.001722 20.1713966,145.474112 19.4192179,145.543601 C19.2663687,145.556964 19.0290503,145.528901 19.0290503,145.738036 C19.0290503,145.848951 19.1269274,145.876345 19.2241341,145.876345 C19.6558659,145.876345 20.101676,145.820888 20.547486,145.820888 C20.9658101,145.820888 21.4116201,145.876345 21.8574302,145.876345 C21.9546369,145.876345 22.0243575,145.834919 22.0243575,145.723336 C22.0243575,145.543601 21.7736313,145.556964 21.6348603,145.543601 C20.8820112,145.474112 21.0080447,145.001722 21.0080447,144.404386 L21.0080447,142.071834 C21.0080447,141.516592 21.0489385,141.211242 21.4531844,140.794978 C21.8158659,140.420139 22.3032402,140.197641 22.8328492,140.197641 C23.3758659,140.197641 23.8773184,140.420139 24.1421229,140.822372 C24.3928492,141.197211 24.3928492,141.753121 24.3928492,142.197448 L24.3928492,144.404386 C24.3928492,145.001722 24.5182123,145.474112 23.7660335,145.543601 C23.612514,145.556964 23.3758659,145.528901 23.3758659,145.738036 C23.3758659,145.848951 23.473743,145.876345 23.5709497,145.876345 C24.0026816,145.876345 24.4484916,145.820888 24.8943017,145.820888 C25.3119553,145.820888 25.7577654,145.876345 26.2035754,145.876345 C26.3014525,145.876345 26.3711732,145.834919 26.3711732,145.723336 C26.3711732,145.543601 26.1204469,145.556964 25.9810056,145.543601 C25.2281564,145.474112 25.3541899,145.001722 25.3541899,144.404386 L25.3541899,142.210812 C25.3541899,141.543987 25.381676,140.864466 24.9358659,140.294525 C24.5456983,139.79474 23.9886034,139.545516 23.292067,139.545516 C22.0243575,139.545516 21.2440223,140.684063 21.0080447,140.684063 L21.0080447,139.767345 C21.0080447,139.670462 21.0214525,139.545516 20.8820112,139.545516 C20.7707263,139.545516 20.7010056,139.65643 20.6312849,139.725919 C20.4080447,139.989843 19.8093855,140.349982 19.4748603,140.447534 C19.3494972,140.48896 19.1544134,140.517022 19.1544134,140.684063 C19.1544134,140.766915 19.2382123,140.794978 19.3220112,140.794978 L19.5030168,140.794978 C19.6143017,140.794978 19.8234637,140.809009 19.9072626,140.905892 C20.0601117,141.058233 20.0460335,141.600112 20.0460335,141.794547 L20.0460335,144.404386" id="Fill-9" stroke="#FFFFFF" stroke-width="0.5" fill="#FFFFFF"></path>
                    <path d="M27.2835754,145.071879 C27.2835754,145.293709 27.2560894,145.474112 27.4786592,145.570996 C27.9385475,145.806857 28.7604469,145.987928 29.2478212,145.987928 C30.4324022,145.987928 31.8951955,145.293709 31.8951955,143.960058 C31.8951955,141.697664 28.4118436,142.432641 28.4118436,140.809009 C28.4118436,140.170247 29.1224581,139.781377 29.6936313,139.781377 C31.1986592,139.781377 31.0451397,141.086296 31.393743,141.086296 C31.6303911,141.086296 31.532514,140.48896 31.532514,140.405439 C31.532514,140.197641 31.6163128,139.892291 31.3796648,139.781377 C31.0451397,139.642399 30.3070391,139.545516 29.9443575,139.545516 C29.3597765,139.545516 28.7886034,139.65643 28.3005587,140.003874 C27.8547486,140.322587 27.5624581,140.753552 27.5624581,141.294094 C27.5624581,142.419278 28.8301676,142.766054 29.6936313,143.044009 C30.3626816,143.265839 31.0310615,143.571188 31.0310615,144.376323 C31.0310615,145.266314 30.1535196,145.738036 29.3322905,145.738036 C27.437095,145.738036 28.0082682,143.83578 27.5068156,143.83578 C27.3532961,143.83578 27.3392179,144.030215 27.3258101,144.140462 L27.2835754,145.071879" id="Fill-10" stroke="#FFFFFF" stroke-width="0.5" fill="#FFFFFF"></path>
                    <path d="M34.8026816,140.656 C34.8026816,140.155547 34.7745251,140.155547 35.2900559,140.155547 L36.2654749,140.155547 C36.4464804,140.155547 36.6415642,140.211004 36.6415642,139.975812 C36.6415642,139.809439 36.6415642,139.725919 36.4464804,139.725919 L35.3456983,139.725919 C34.7604469,139.725919 34.8026816,139.698525 34.8026816,139.10052 L34.8026816,138.406969 C34.8026816,137.726112 34.9280447,136.490682 35.8612291,136.490682 C36.2654749,136.490682 36.5436872,136.810063 36.7944134,137.08735 C36.8782123,137.184901 37.0592179,137.3927 37.1986592,137.3927 C37.3796648,137.3927 37.5888268,136.740574 37.5888268,136.601596 C37.5888268,136.212726 36.627486,136.08778 36.3767598,136.08778 C35.6661453,136.08778 34.8858101,136.518744 34.412514,137.017861 C33.9526257,137.518314 33.8688268,138.225897 33.8131844,138.878691 C33.7850279,139.308318 33.8413408,139.698525 33.3539665,139.822803 C33.2426816,139.850865 33.0194413,139.892291 33.0194413,140.0453 C33.0194413,140.225704 33.3258101,140.155547 33.4377654,140.155547 C33.8688268,140.155547 33.8413408,140.239067 33.8413408,140.656 L33.8413408,144.404386 C33.8413408,145.001722 33.9526257,145.474112 33.2004469,145.543601 C33.0610056,145.556964 32.8243575,145.528901 32.8243575,145.738036 C32.8243575,145.848951 32.9081564,145.876345 33.0053631,145.876345 C33.4236872,145.876345 33.8688268,145.820888 34.2871508,145.820888 C34.7329609,145.820888 35.1787709,145.876345 35.652067,145.876345 C35.7499441,145.876345 35.8196648,145.848951 35.8196648,145.723336 C35.8196648,145.543601 35.5689385,145.556964 35.4294972,145.543601 C34.6773184,145.474112 34.8026816,145.001722 34.8026816,144.404386 L34.8026816,140.656" id="Fill-11" stroke="#FFFFFF" stroke-width="0.5" fill="#FFFFFF"></path>
                    <path d="M39.0067039,138.336812 C39.4109497,138.336812 39.6194413,138.01743 39.6194413,137.642592 C39.6194413,137.309179 39.3968715,136.976435 39.0348603,136.976435 C38.6581006,136.976435 38.4073743,137.309179 38.4073743,137.670655 C38.4073743,138.031462 38.6306145,138.336812 39.0067039,138.336812 Z M39.4940782,139.767345 C39.4940782,139.670462 39.5081564,139.545516 39.3687151,139.545516 C39.2574302,139.545516 39.1877095,139.65643 39.1179888,139.725919 C38.895419,139.989843 38.2960894,140.349982 37.9615642,140.447534 C37.8362011,140.48896 37.6417877,140.517022 37.6417877,140.684063 C37.6417877,140.766915 37.7249162,140.794978 37.8080447,140.794978 L37.9897207,140.794978 C38.1010056,140.794978 38.3101676,140.809009 38.3939665,140.905892 C38.5468156,141.058233 38.5327374,141.600112 38.5327374,141.794547 L38.5327374,144.404386 C38.5327374,145.001722 38.6581006,145.474112 37.9059218,145.543601 C37.7530726,145.556964 37.5164246,145.528901 37.5164246,145.738036 C37.5164246,145.848951 37.6136313,145.876345 37.7115084,145.876345 C38.1425698,145.876345 38.5883799,145.820888 39.0348603,145.820888 C39.452514,145.820888 39.898324,145.876345 40.3441341,145.876345 C40.4413408,145.876345 40.5110615,145.834919 40.5110615,145.723336 C40.5110615,145.543601 40.2603352,145.556964 40.1208939,145.543601 C39.3687151,145.474112 39.4940782,145.001722 39.4940782,144.404386 L39.4940782,139.767345 Z" id="Fill-12" stroke="#FFFFFF" stroke-width="0.5" fill="#FFFFFF"></path>
                    <path d="M43.0987709,141.711027 C42.9452514,141.711027 42.6254749,141.753121 42.6254749,141.530623 C42.6254749,141.308794 42.8480447,140.87783 42.9734078,140.725489 C43.3910615,140.142184 44.0735196,139.79474 44.7841341,139.79474 C45.2299441,139.79474 45.6898324,139.906323 45.9962011,140.225704 C46.1912849,140.433502 46.3582123,140.753552 46.3582123,141.04487 C46.3582123,141.377614 46.1497207,141.530623 45.843352,141.600112 C45.4391061,141.697664 44.6587709,141.711027 44.2270391,141.711027 L43.0987709,141.711027 Z M47.3061453,142.044439 C47.4449162,142.044439 47.4730726,141.919493 47.4730726,141.808578 C47.4730726,141.349552 47.2639106,140.753552 46.9856983,140.405439 C46.4976536,139.809439 45.7313966,139.545516 44.9792179,139.545516 C44.0319553,139.545516 43.1684916,139.864897 42.4719553,140.475596 C41.7331844,141.113691 41.4683799,141.850004 41.4683799,142.794117 C41.4683799,144.529332 42.8198883,145.987928 44.6446927,145.987928 C45.5088268,145.987928 46.1912849,145.76543 46.846257,145.210188 C46.9441341,145.126668 47.3892737,144.75183 47.3892737,144.584789 C47.3892737,144.529332 47.3477095,144.473874 47.2779888,144.473874 C47.0969832,144.473874 46.5814525,145.377229 45.2158659,145.377229 C43.5305028,145.377229 42.5135196,144.030215 42.5135196,142.474735 C42.5135196,142.016377 42.6529609,142.044439 43.0846927,142.044439 L47.3061453,142.044439 Z" id="Fill-13" stroke="#FFFFFF" stroke-width="0.5" fill="#FFFFFF"></path>
                    <path d="M50.523352,136.310278 C50.523352,136.198695 50.5374302,136.08778 50.3979888,136.08778 C50.3001117,136.08778 50.175419,136.185332 50.1056983,136.240789 C49.7711732,136.463287 49.2422346,136.601596 48.852067,136.670417 C48.7682682,136.685117 48.6569832,136.726543 48.6569832,136.823426 C48.6569832,137.00383 48.8936313,136.962404 49.0189944,136.962404 C49.6873743,136.962404 49.5620112,137.573771 49.5620112,138.086919 L49.5620112,144.404386 C49.5620112,145.001722 49.6873743,145.474112 48.9351955,145.543601 C48.7823464,145.556964 48.5456983,145.528901 48.5456983,145.738036 C48.5456983,145.848951 48.642905,145.876345 48.7401117,145.876345 C49.172514,145.876345 49.6176536,145.820888 50.0634637,145.820888 C50.4817877,145.820888 50.9275978,145.876345 51.3734078,145.876345 C51.4706145,145.876345 51.5403352,145.834919 51.5403352,145.723336 C51.5403352,145.543601 51.2896089,145.556964 51.1501676,145.543601 C50.3979888,145.474112 50.523352,145.001722 50.523352,144.404386 L50.523352,136.310278" id="Fill-14" stroke="#FFFFFF" stroke-width="0.5" fill="#FFFFFF"></path>
                    <path d="M57.8473743,144.043578 C57.8473743,144.321534 57.8896089,144.515969 57.707933,144.737798 C57.3184358,145.196157 56.6353073,145.390592 56.0641341,145.390592 C54.5182123,145.390592 53.6540782,143.960058 53.6540782,142.571619 C53.6540782,141.183179 54.5597765,139.933717 56.0782123,139.79474 C56.5381006,139.753982 57.1789944,139.920354 57.5135196,140.239067 C57.8755307,140.57248 57.8473743,141.099659 57.8473743,141.530623 L57.8473743,144.043578 Z M58.8087151,136.310278 C58.8087151,136.198695 58.8227933,136.08778 58.683352,136.08778 C58.5861453,136.08778 58.4607821,136.185332 58.3910615,136.240789 C58.0565363,136.463287 57.5269274,136.601596 57.1367598,136.670417 C57.0536313,136.685117 56.9423464,136.726543 56.9423464,136.823426 C56.9423464,137.00383 57.1789944,136.962404 57.3043575,136.962404 C57.9734078,136.962404 57.8473743,137.573771 57.8473743,138.086919 L57.8473743,139.406538 C57.8473743,139.490058 57.9036872,139.920354 57.7360894,139.920354 C57.6663687,139.920354 57.5410056,139.864897 57.4712849,139.836834 C57.012067,139.65643 56.4958659,139.57291 55.9810056,139.545516 C55.0893855,139.503422 54.2252514,139.948417 53.5984358,140.545085 C52.9716201,141.141753 52.6236872,141.905462 52.6236872,142.780753 C52.6236872,144.44648 53.8632402,145.987928 55.6324022,145.987928 C56.7613408,145.987928 57.569162,145.057179 57.778324,145.057179 C57.917095,145.057179 57.917095,145.446049 57.917095,145.501507 C57.9311732,145.585027 57.917095,145.890377 58.0706145,145.890377 C58.1544134,145.890377 58.2931844,145.806857 58.362905,145.76543 L59.4911732,145.335135 C59.6587709,145.279677 59.7144134,145.279677 59.7284916,145.099274 L59.7425698,144.918202 C59.7559777,144.862744 59.7700559,144.75183 59.6728492,144.75183 C59.5468156,144.75183 59.3101676,145.238251 59.0178771,145.238251 C58.7530726,145.238251 58.8087151,144.681673 58.8087151,144.529332 L58.8087151,136.310278 Z" id="Fill-15" stroke="#FFFFFF" stroke-width="0.5" fill="#FFFFFF"></path>
                    <path d="M66.5564246,144.376323 C66.5564246,145.251614 66.6261453,145.528901 65.6513966,145.528901 C65.5260335,145.528901 65.3027933,145.516206 65.3027933,145.695942 C65.3027933,145.848951 65.4147486,145.876345 65.5401117,145.876345 C66.0690503,145.876345 66.5986592,145.820888 67.1282682,145.820888 C67.6578771,145.820888 68.1593296,145.876345 68.6882682,145.876345 C68.8136313,145.876345 68.9249162,145.848951 68.9249162,145.695942 C68.9249162,145.516206 68.6882682,145.528901 68.562905,145.528901 C67.6015642,145.516206 67.6578771,145.266314 67.6578771,144.376323 L67.6578771,138.684256 C67.6578771,137.809632 67.5881564,137.545709 68.562905,137.545709 C68.6882682,137.545709 68.9249162,137.545709 68.9249162,137.365305 C68.9249162,137.212296 68.8136313,137.170202 68.6882682,137.170202 C68.1593296,137.170202 67.6297207,137.226327 67.1001117,137.226327 C66.5705028,137.226327 66.0690503,137.170202 65.5401117,137.170202 C65.4006704,137.170202 65.3027933,137.212296 65.3027933,137.365305 C65.3027933,137.545709 65.5260335,137.545709 65.6513966,137.545709 C66.6261453,137.545709 66.5564246,137.809632 66.5564246,138.684256 L66.5564246,144.376323" id="Fill-16" stroke="#FFFFFF" stroke-width="0.5" fill="#FFFFFF"></path>
                    <path d="M70.9964246,144.404386 C70.9964246,145.001722 71.1217877,145.474112 70.3696089,145.543601 C70.2160894,145.556964 69.9794413,145.528901 69.9794413,145.738036 C69.9794413,145.848951 70.076648,145.876345 70.1738547,145.876345 C70.606257,145.876345 71.052067,145.820888 71.4978771,145.820888 C71.9155307,145.820888 72.3613408,145.876345 72.8071508,145.876345 C72.9050279,145.876345 72.9747486,145.834919 72.9747486,145.723336 C72.9747486,145.543601 72.7240223,145.556964 72.584581,145.543601 C71.8317318,145.474112 71.957095,145.001722 71.957095,144.404386 L71.957095,142.071834 C71.957095,141.516592 71.9993296,141.211242 72.402905,140.794978 C72.7655866,140.420139 73.2529609,140.197641 73.7825698,140.197641 C74.3255866,140.197641 74.8270391,140.420139 75.0918436,140.822372 C75.3425698,141.197211 75.3425698,141.753121 75.3425698,142.197448 L75.3425698,144.404386 C75.3425698,145.001722 75.467933,145.474112 74.7157542,145.543601 C74.5622346,145.556964 74.3255866,145.528901 74.3255866,145.738036 C74.3255866,145.848951 74.4234637,145.876345 74.5206704,145.876345 C74.9524022,145.876345 75.3982123,145.820888 75.8440223,145.820888 C76.2623464,145.820888 76.7081564,145.876345 77.1539665,145.876345 C77.2511732,145.876345 77.3208939,145.834919 77.3208939,145.723336 C77.3208939,145.543601 77.0701676,145.556964 76.9307263,145.543601 C76.1785475,145.474112 76.3039106,145.001722 76.3039106,144.404386 L76.3039106,142.210812 C76.3039106,141.543987 76.3313966,140.864466 75.886257,140.294525 C75.4960894,139.79474 74.9389944,139.545516 74.2424581,139.545516 C72.9747486,139.545516 72.1944134,140.684063 71.957095,140.684063 L71.957095,139.767345 C71.957095,139.670462 71.9711732,139.545516 71.8317318,139.545516 C71.7204469,139.545516 71.6507263,139.65643 71.5810056,139.725919 C71.3584358,139.989843 70.7591061,140.349982 70.4252514,140.447534 C70.2998883,140.48896 70.1048045,140.517022 70.1048045,140.684063 C70.1048045,140.766915 70.187933,140.794978 70.2717318,140.794978 L70.4527374,140.794978 C70.5640223,140.794978 70.7731844,140.809009 70.8569832,140.905892 C71.0098324,141.058233 70.9964246,141.600112 70.9964246,141.794547 L70.9964246,144.404386" id="Fill-17" stroke="#FFFFFF" stroke-width="0.5" fill="#FFFFFF"></path>
                    <path d="M83.4576536,144.043578 C83.4576536,144.321534 83.4998883,144.515969 83.3182123,144.737798 C82.9287151,145.196157 82.246257,145.390592 81.6750838,145.390592 C80.1284916,145.390592 79.2643575,143.960058 79.2643575,142.571619 C79.2643575,141.183179 80.1700559,139.933717 81.6884916,139.79474 C82.1483799,139.753982 82.7892737,139.920354 83.1237989,140.239067 C83.4858101,140.57248 83.4576536,141.099659 83.4576536,141.530623 L83.4576536,144.043578 Z M84.4189944,136.310278 C84.4189944,136.198695 84.4330726,136.08778 84.2936313,136.08778 C84.1964246,136.08778 84.0710615,136.185332 84.0013408,136.240789 C83.6668156,136.463287 83.1372067,136.601596 82.7470391,136.670417 C82.6639106,136.685117 82.5526257,136.726543 82.5526257,136.823426 C82.5526257,137.00383 82.7892737,136.962404 82.9146369,136.962404 C83.5836872,136.962404 83.4576536,137.573771 83.4576536,138.086919 L83.4576536,139.406538 C83.4576536,139.490058 83.5139665,139.920354 83.3463687,139.920354 C83.276648,139.920354 83.1512849,139.864897 83.0815642,139.836834 C82.6223464,139.65643 82.1068156,139.57291 81.5912849,139.545516 C80.6996648,139.503422 79.8355307,139.948417 79.2087151,140.545085 C78.5818994,141.141753 78.2339665,141.905462 78.2339665,142.780753 C78.2339665,144.44648 79.4735196,145.987928 81.243352,145.987928 C82.3716201,145.987928 83.1794413,145.057179 83.387933,145.057179 C83.5273743,145.057179 83.5273743,145.446049 83.5273743,145.501507 C83.5414525,145.585027 83.5273743,145.890377 83.6808939,145.890377 C83.7646927,145.890377 83.9034637,145.806857 83.9731844,145.76543 L85.1014525,145.335135 C85.2690503,145.279677 85.3246927,145.279677 85.3387709,145.099274 L85.3521788,144.918202 C85.366257,144.862744 85.3803352,144.75183 85.2824581,144.75183 C85.157095,144.75183 84.9204469,145.238251 84.6281564,145.238251 C84.363352,145.238251 84.4189944,144.681673 84.4189944,144.529332 L84.4189944,136.310278 Z" id="Fill-18" stroke="#FFFFFF" stroke-width="0.5" fill="#FFFFFF"></path>
                    <g id="Group-22" transform="translate(85.810056, 138.309417)">
                        <mask id="mask-4" fill="white">
                            <use xlink:href="#path-3"></use>
                        </mask>
                        <g id="Clip-20"></g>
                        <path d="M2.11307263,3.40160987 C1.95955307,3.40160987 1.63977654,3.44370404 1.63977654,3.22120628 C1.63977654,2.99937668 1.86234637,2.56841256 1.9877095,2.41607175 C2.40536313,1.83276682 3.08782123,1.48532287 3.79910615,1.48532287 C4.2449162,1.48532287 4.70413408,1.59690583 5.01050279,1.916287 C5.20558659,2.1240852 5.37318436,2.44413453 5.37318436,2.73545291 C5.37318436,3.06819731 5.16402235,3.22120628 4.85765363,3.29069507 C4.45340782,3.38824664 3.67374302,3.40160987 3.24134078,3.40160987 L2.11307263,3.40160987 Z M6.32044693,3.73502242 C6.45921788,3.73502242 6.4873743,3.61007623 6.4873743,3.49916143 C6.4873743,3.04013453 6.27821229,2.44413453 6,2.09602242 C5.5126257,1.50002242 4.74636872,1.23609865 3.99418994,1.23609865 C3.04625698,1.23609865 2.1827933,1.55547982 1.48625698,2.16617937 C0.747486034,2.80427354 0.483351955,3.54058744 0.483351955,4.48469955 C0.483351955,6.2199148 1.83418994,7.67851121 3.65899441,7.67851121 C4.52312849,7.67851121 5.20558659,7.45601345 5.86055866,6.9007713 C5.95843575,6.81725112 6.40357542,6.44241256 6.40357542,6.2753722 C6.40357542,6.2199148 6.36201117,6.1644574 6.2922905,6.1644574 C6.11128492,6.1644574 5.59575419,7.06781166 4.23083799,7.06781166 C2.54480447,7.06781166 1.52782123,5.72079821 1.52782123,4.16531839 C1.52782123,3.70695964 1.66726257,3.73502242 2.09899441,3.73502242 L6.32044693,3.73502242 Z" id="Fill-19" stroke="#FFFFFF" stroke-width="0.5" fill="#FFFFFF" mask="url(#mask-4)"></path>
                        <path d="M13.7865922,4.58225112 C13.7865922,6.02547982 12.7977654,7.42861883 11.1955307,7.42861883 C10.7778771,7.42861883 10.2905028,7.27560987 9.98413408,7.02571749 C9.57988827,6.66491031 9.53832402,6.1644574 9.53832402,5.66534081 L9.53832402,3.51252466 C9.53832402,3.1931435 9.53832402,2.81830493 9.77497207,2.55504933 C10.122905,2.04056502 10.7778771,1.83276682 11.3490503,1.83276682 C11.9758659,1.83276682 12.6167598,2.11072197 13.0484916,2.55504933 C13.5640223,3.09626009 13.7865922,3.84593722 13.7865922,4.58225112 Z M8.57631285,9.21929148 C8.57631285,9.8166278 8.70167598,10.2883498 7.94949721,10.3578386 C7.79664804,10.37187 7.56,10.3444753 7.56,10.5516054 C7.56,10.6631883 7.6572067,10.690583 7.75441341,10.690583 C8.18681564,10.690583 8.63195531,10.6351256 9.07843575,10.6351256 C9.49608939,10.6351256 9.94189944,10.690583 10.3877095,10.690583 C10.4855866,10.690583 10.5553073,10.649157 10.5553073,10.5382422 C10.5553073,10.3578386 10.3039106,10.37187 10.1651397,10.3578386 C9.41296089,10.2883498 9.53832402,9.8166278 9.53832402,9.21929148 L9.53832402,7.73396861 C9.53832402,7.65044843 9.48268156,7.31703587 9.64960894,7.31703587 C9.73273743,7.31703587 9.88625698,7.37316143 9.97005587,7.38652466 C10.4574302,7.55289686 10.8335196,7.67851121 11.3631285,7.67851121 C13.3132961,7.69187444 14.8458101,6.31679821 14.8458101,4.40117937 C14.8458101,3.59604484 14.5528492,2.79024215 13.9957542,2.20760538 C13.4661453,1.66639462 12.6724022,1.22206726 11.892067,1.23609865 C11.0426816,1.25013004 10.2623464,1.62430045 9.53832402,2.22163677 L9.53832402,1.45792825 C9.53832402,1.36104484 9.55173184,1.23609865 9.41296089,1.23609865 C9.30167598,1.23609865 9.23195531,1.34701345 9.16223464,1.41650224 C8.93899441,1.68042601 8.3396648,2.04056502 8.00513966,2.13811659 C7.87977654,2.1795426 7.68536313,2.20760538 7.68536313,2.37464574 C7.68536313,2.45749776 7.76849162,2.48556054 7.8522905,2.48556054 L8.03329609,2.48556054 C8.14458101,2.48556054 8.35374302,2.49959193 8.4375419,2.59647534 C8.59039106,2.74881614 8.57631285,3.29069507 8.57631285,3.48513004 L8.57631285,9.21929148 Z" id="Fill-21" stroke="#FFFFFF" stroke-width="0.5" fill="#FFFFFF" mask="url(#mask-4)"></path>
                    </g>
                    <path d="M103.521117,141.711027 C103.368268,141.711027 103.047821,141.753121 103.047821,141.530623 C103.047821,141.308794 103.270391,140.87783 103.395754,140.725489 C103.814078,140.142184 104.496536,139.79474 105.207151,139.79474 C105.652961,139.79474 106.112849,139.906323 106.419218,140.225704 C106.614302,140.433502 106.781229,140.753552 106.781229,141.04487 C106.781229,141.377614 106.572737,141.530623 106.266369,141.600112 C105.862123,141.697664 105.081788,141.711027 104.650056,141.711027 L103.521117,141.711027 Z M107.728492,142.044439 C107.867933,142.044439 107.896089,141.919493 107.896089,141.808578 C107.896089,141.349552 107.686927,140.753552 107.408045,140.405439 C106.92067,139.809439 106.154413,139.545516 105.402235,139.545516 C104.454972,139.545516 103.591508,139.864897 102.894302,140.475596 C102.156201,141.113691 101.891397,141.850004 101.891397,142.794117 C101.891397,144.529332 103.242905,145.987928 105.067709,145.987928 C105.931844,145.987928 106.614302,145.76543 107.269274,145.210188 C107.36648,145.126668 107.812291,144.75183 107.812291,144.584789 C107.812291,144.529332 107.770726,144.473874 107.701006,144.473874 C107.52,144.473874 107.004469,145.377229 105.638883,145.377229 C103.95352,145.377229 102.936536,144.030215 102.936536,142.474735 C102.936536,142.016377 103.075978,142.044439 103.507709,142.044439 L107.728492,142.044439 Z" id="Fill-23" stroke="#FFFFFF" stroke-width="0.5" fill="#FFFFFF"></path>
                    <path d="M109.985028,144.404386 C109.985028,145.001722 110.111061,145.474112 109.358212,145.543601 C109.205363,145.556964 108.968045,145.528901 108.968045,145.738036 C108.968045,145.848951 109.065922,145.876345 109.163128,145.876345 C109.59486,145.876345 110.04067,145.820888 110.48648,145.820888 C110.904134,145.820888 111.350615,145.876345 111.795754,145.876345 C111.893631,145.876345 111.963352,145.834919 111.963352,145.723336 C111.963352,145.543601 111.711955,145.556964 111.573184,145.543601 C110.821006,145.474112 110.946369,145.001722 110.946369,144.404386 L110.946369,142.071834 C110.946369,141.516592 110.987933,141.211242 111.392849,140.794978 C111.75419,140.420139 112.241564,140.197641 112.771173,140.197641 C113.31486,140.197641 113.816313,140.420139 114.080447,140.822372 C114.331173,141.197211 114.331173,141.753121 114.331173,142.197448 L114.331173,144.404386 C114.331173,145.001722 114.457207,145.474112 113.705028,145.543601 C113.551508,145.556964 113.31486,145.528901 113.31486,145.738036 C113.31486,145.848951 113.412067,145.876345 113.509944,145.876345 C113.941676,145.876345 114.386816,145.820888 114.832626,145.820888 C115.25162,145.820888 115.69743,145.876345 116.14324,145.876345 C116.239777,145.876345 116.310168,145.834919 116.310168,145.723336 C116.310168,145.543601 116.059441,145.556964 115.92,145.543601 C115.167821,145.474112 115.292514,145.001722 115.292514,144.404386 L115.292514,142.210812 C115.292514,141.543987 115.32067,140.864466 114.87486,140.294525 C114.484693,139.79474 113.928268,139.545516 113.231061,139.545516 C111.963352,139.545516 111.183017,140.684063 110.946369,140.684063 L110.946369,139.767345 C110.946369,139.670462 110.959777,139.545516 110.821006,139.545516 C110.709721,139.545516 110.64,139.65643 110.570279,139.725919 C110.347709,139.989843 109.74838,140.349982 109.413855,140.447534 C109.288492,140.48896 109.094078,140.517022 109.094078,140.684063 C109.094078,140.766915 109.177207,140.794978 109.261006,140.794978 L109.441341,140.794978 C109.553296,140.794978 109.761788,140.809009 109.845587,140.905892 C109.999106,141.058233 109.985028,141.600112 109.985028,141.794547 L109.985028,144.404386" id="Fill-24" stroke="#FFFFFF" stroke-width="0.5" fill="#FFFFFF"></path>
                    <path d="M122.446927,144.043578 C122.446927,144.321534 122.487821,144.515969 122.307486,144.737798 C121.917318,145.196157 121.23486,145.390592 120.663687,145.390592 C119.117765,145.390592 118.253631,143.960058 118.253631,142.571619 C118.253631,141.183179 119.15933,139.933717 120.677095,139.79474 C121.136983,139.753982 121.777877,139.920354 122.113073,140.239067 C122.475084,140.57248 122.446927,141.099659 122.446927,141.530623 L122.446927,144.043578 Z M123.408268,136.310278 C123.408268,136.198695 123.421676,136.08778 123.282905,136.08778 C123.184358,136.08778 123.059665,136.185332 122.989944,136.240789 C122.655419,136.463287 122.12648,136.601596 121.735642,136.670417 C121.652514,136.685117 121.541229,136.726543 121.541229,136.823426 C121.541229,137.00383 121.777877,136.962404 121.90324,136.962404 C122.57162,136.962404 122.446927,137.573771 122.446927,138.086919 L122.446927,139.406538 C122.446927,139.490058 122.50257,139.920354 122.334972,139.920354 C122.265251,139.920354 122.140559,139.864897 122.070838,139.836834 C121.61095,139.65643 121.095419,139.57291 120.579888,139.545516 C119.688939,139.503422 118.825475,139.948417 118.197989,140.545085 C117.570503,141.141753 117.22324,141.905462 117.22324,142.780753 C117.22324,144.44648 118.462793,145.987928 120.231955,145.987928 C121.360223,145.987928 122.168715,145.057179 122.376536,145.057179 C122.515978,145.057179 122.515978,145.446049 122.515978,145.501507 C122.530056,145.585027 122.515978,145.890377 122.670168,145.890377 C122.753296,145.890377 122.892737,145.806857 122.962458,145.76543 L124.090726,145.335135 C124.257654,145.279677 124.313966,145.279677 124.328045,145.099274 L124.341453,144.918202 C124.355531,144.862744 124.369609,144.75183 124.272402,144.75183 C124.146369,144.75183 123.909721,145.238251 123.61676,145.238251 C123.351955,145.238251 123.408268,144.681673 123.408268,144.529332 L123.408268,136.310278 Z" id="Fill-25" stroke="#FFFFFF" stroke-width="0.5" fill="#FFFFFF"></path>
                    <path d="M126.912402,141.711027 C126.758883,141.711027 126.438436,141.753121 126.438436,141.530623 C126.438436,141.308794 126.661006,140.87783 126.787039,140.725489 C127.205363,140.142184 127.887151,139.79474 128.597765,139.79474 C129.043575,139.79474 129.503464,139.906323 129.809162,140.225704 C130.004246,140.433502 130.171844,140.753552 130.171844,141.04487 C130.171844,141.377614 129.962682,141.530623 129.656983,141.600112 C129.252737,141.697664 128.472402,141.711027 128.04067,141.711027 L126.912402,141.711027 Z M131.119106,142.044439 C131.258547,142.044439 131.286034,141.919493 131.286034,141.808578 C131.286034,141.349552 131.077542,140.753552 130.798659,140.405439 C130.311285,139.809439 129.545028,139.545516 128.792849,139.545516 C127.845587,139.545516 126.982123,139.864897 126.285587,140.475596 C125.546816,141.113691 125.282011,141.850004 125.282011,142.794117 C125.282011,144.529332 126.63352,145.987928 128.458994,145.987928 C129.322458,145.987928 130.004246,145.76543 130.659888,145.210188 C130.756425,145.126668 131.202235,144.75183 131.202235,144.584789 C131.202235,144.529332 131.16067,144.473874 131.09095,144.473874 C130.909944,144.473874 130.395084,145.377229 129.029497,145.377229 C127.344804,145.377229 126.327151,144.030215 126.327151,142.474735 C126.327151,142.016377 126.465922,142.044439 126.898324,142.044439 L131.119106,142.044439 Z" id="Fill-26" stroke="#FFFFFF" stroke-width="0.5" fill="#FFFFFF"></path>
                    <path d="M133.376313,144.404386 C133.376313,145.001722 133.501006,145.474112 132.748827,145.543601 C132.595978,145.556964 132.358659,145.528901 132.358659,145.738036 C132.358659,145.848951 132.456536,145.876345 132.553743,145.876345 C132.985475,145.876345 133.431955,145.820888 133.877095,145.820888 C134.295419,145.820888 134.741229,145.876345 135.187039,145.876345 C135.283575,145.876345 135.353966,145.834919 135.353966,145.723336 C135.353966,145.543601 135.10324,145.556964 134.963799,145.543601 C134.21162,145.474112 134.336983,145.001722 134.336983,144.404386 L134.336983,142.071834 C134.336983,141.516592 134.379218,141.211242 134.782793,140.794978 C135.144804,140.420139 135.632849,140.197641 136.161788,140.197641 C136.704804,140.197641 137.206927,140.420139 137.471732,140.822372 C137.722458,141.197211 137.722458,141.753121 137.722458,142.197448 L137.722458,144.404386 C137.722458,145.001722 137.847821,145.474112 137.094972,145.543601 C136.942123,145.556964 136.704804,145.528901 136.704804,145.738036 C136.704804,145.848951 136.802682,145.876345 136.900559,145.876345 C137.33162,145.876345 137.778101,145.820888 138.223911,145.820888 C138.641564,145.820888 139.087374,145.876345 139.533184,145.876345 C139.631061,145.876345 139.700112,145.834919 139.700112,145.723336 C139.700112,145.543601 139.449385,145.556964 139.310615,145.543601 C138.557765,145.474112 138.683799,145.001722 138.683799,144.404386 L138.683799,142.210812 C138.683799,141.543987 138.711285,140.864466 138.266145,140.294525 C137.875978,139.79474 137.318212,139.545516 136.621676,139.545516 C135.353966,139.545516 134.574302,140.684063 134.336983,140.684063 L134.336983,139.767345 C134.336983,139.670462 134.351061,139.545516 134.21162,139.545516 C134.100335,139.545516 134.029944,139.65643 133.960894,139.725919 C133.738324,139.989843 133.138994,140.349982 132.804469,140.447534 C132.679106,140.48896 132.484693,140.517022 132.484693,140.684063 C132.484693,140.766915 132.568492,140.794978 132.65162,140.794978 L132.831955,140.794978 C132.943911,140.794978 133.153073,140.809009 133.236872,140.905892 C133.389721,141.058233 133.376313,141.600112 133.376313,141.794547 L133.376313,144.404386" id="Fill-27" stroke="#FFFFFF" stroke-width="0.5" fill="#FFFFFF"></path>
                    <path d="M142.048492,140.322587 C142.048492,139.933717 142.242905,140.017238 142.564022,140.017238 L143.343687,140.017238 C143.664134,140.017238 143.775419,140.087395 143.775419,139.79474 C143.775419,139.683825 143.775419,139.600973 143.650056,139.600973 L142.271061,139.600973 C142.075978,139.586942 142.048492,139.503422 142.048492,139.323018 L142.048492,138.336812 C142.048492,138.253291 142.034413,138.170439 141.936536,138.170439 C141.867486,138.170439 141.825251,138.239928 141.797095,138.295386 C141.477318,138.961543 141.073073,139.308318 140.474413,139.698525 C140.404022,139.753982 140.306816,139.809439 140.306816,139.906323 C140.306816,140.072695 140.669497,140.017238 140.739218,140.017238 C141.004022,140.017238 141.087151,139.975812 141.087151,140.26713 L141.087151,143.83578 C141.087151,144.391022 141.031508,145.099274 141.39352,145.556964 C141.630168,145.848951 142.020335,145.987928 142.396425,145.987928 C142.883799,145.987928 143.343687,145.778794 143.69162,145.460081 C143.789497,145.390592 143.970503,145.210188 143.970503,145.071879 C143.970503,145.029785 143.928939,144.974327 143.873296,144.974327 C143.762011,144.974327 143.385251,145.460081 142.870391,145.460081 C142.034413,145.460081 142.048492,144.432448 142.048492,143.83578 L142.048492,140.322587" id="Fill-28" stroke="#FFFFFF" stroke-width="0.5" fill="#FFFFFF"></path>
                    <path d="M152.513966,141.850004 C153.461229,142.266269 154.213408,142.808148 154.213408,143.9193 C154.213408,145.015753 153.183017,145.723336 152.137877,145.723336 C150.870168,145.723336 150.229274,144.974327 150.089832,143.779655 C150.076425,143.66874 150.076425,143.321964 149.894749,143.321964 C149.741899,143.321964 149.699665,143.487668 149.686257,143.599251 C149.644022,143.960058 149.644022,144.307502 149.644022,144.668309 C149.644022,144.918202 149.602458,145.293709 149.839106,145.446049 C150.423687,145.793493 151.259665,145.987928 151.942793,145.987928 C152.750615,145.987928 153.545028,145.778794 154.171844,145.266314 C154.770503,144.765193 155.146592,144.070973 155.146592,143.293233 C155.146592,142.697233 154.882458,142.086534 154.478212,141.642206 C154.143687,141.280731 153.558436,140.988744 153.099218,140.780946 C152.19352,140.392076 150.661006,139.906323 150.661006,138.71165 C150.661006,137.698049 151.537877,137.226327 152.458324,137.226327 C153.545028,137.226327 153.962682,137.740143 154.269721,138.698287 C154.311285,138.79517 154.338771,139.017 154.492291,139.017 C154.589497,139.017 154.64514,138.947511 154.64514,138.851296 C154.631061,138.489821 154.603575,138.129013 154.589497,137.768206 C154.575419,137.518314 154.603575,137.351274 154.338771,137.253722 C153.82324,137.045924 153.016089,136.948372 152.472402,136.948372 C151.106816,136.948372 149.783464,137.837027 149.783464,139.294955 C149.783464,140.531054 150.786369,141.099659 151.803352,141.543987 L152.513966,141.850004" id="Fill-29" stroke="#FFFFFF" stroke-width="0.5" fill="#FFFFFF"></path>
                    <path d="M161.928268,140.614574 C161.928268,140.433502 161.997989,140.128152 161.816313,140.003874 C161.370503,139.698525 160.633073,139.545516 160.103464,139.545516 C158.236425,139.545516 156.481341,141.016807 156.481341,142.891668 C156.481341,144.570758 157.887821,145.987928 159.602011,145.987928 C160.35419,145.987928 161.050726,145.76543 161.621229,145.307072 C161.719106,145.22422 162.039553,144.946265 162.039553,144.807287 C162.039553,144.75183 161.997989,144.696372 161.942346,144.696372 C161.872626,144.696372 161.774749,144.82065 161.733184,144.862744 C161.301453,145.279677 160.730279,145.474112 160.13095,145.474112 C158.57095,145.474112 157.52648,144.030215 157.52648,142.613713 C157.52648,141.766484 157.887821,140.919924 158.529385,140.364013 C158.890726,140.059332 159.448492,139.79474 159.935866,139.79474 C161.064134,139.79474 161.31486,141.322157 161.76067,141.322157 C162.012067,141.322157 161.928268,140.725489 161.928268,140.614574" id="Fill-30" stroke="#FFFFFF" stroke-width="0.5" fill="#FFFFFF"></path>
                    <path d="M164.964469,136.310278 C164.964469,136.198695 164.977877,136.08778 164.839106,136.08778 C164.741899,136.08778 164.615866,136.185332 164.546145,136.240789 C164.212291,136.463287 163.683352,136.601596 163.292514,136.670417 C163.208715,136.685117 163.09743,136.726543 163.09743,136.823426 C163.09743,137.00383 163.334078,136.962404 163.460112,136.962404 C164.128492,136.962404 164.002458,137.573771 164.002458,138.086919 L164.002458,144.404386 C164.002458,145.001722 164.128492,145.474112 163.376313,145.543601 C163.222793,145.556964 162.986816,145.528901 162.986816,145.738036 C162.986816,145.848951 163.083352,145.876345 163.181229,145.876345 C163.612961,145.876345 164.058771,145.820888 164.503911,145.820888 C164.922235,145.820888 165.368045,145.876345 165.813855,145.876345 C165.911732,145.876345 165.981453,145.834919 165.981453,145.723336 C165.981453,145.543601 165.730056,145.556964 165.590615,145.543601 C164.839106,145.474112 164.964469,145.001722 164.964469,144.404386 L164.964469,141.877399 C164.964469,141.322157 164.977877,141.016807 165.382123,140.600543 C165.744804,140.225704 166.232179,140.003874 166.761117,140.003874 C167.347039,140.003874 167.806257,140.225704 168.08514,140.627937 C168.321788,141.003444 168.321788,141.558686 168.321788,142.003013 L168.321788,144.404386 C168.321788,145.001722 168.447151,145.474112 167.694302,145.543601 C167.541453,145.556964 167.304804,145.528901 167.304804,145.738036 C167.304804,145.848951 167.402011,145.876345 167.499218,145.876345 C167.932291,145.876345 168.37743,145.820888 168.82324,145.820888 C169.241564,145.820888 169.686704,145.876345 170.133184,145.876345 C170.230391,145.876345 170.300112,145.834919 170.300112,145.723336 C170.300112,145.543601 170.049385,145.556964 169.909944,145.543601 C169.157765,145.474112 169.283128,145.001722 169.283128,144.404386 L169.283128,142.197448 C169.283128,141.516592 169.297207,140.780946 168.878883,140.211004 C168.530279,139.725919 167.848492,139.545516 167.277318,139.545516 C166.37095,139.545516 165.842011,139.822803 165.242682,140.420139 C165.215196,140.447534 165.131397,140.517022 165.075754,140.517022 C165.006034,140.517022 164.977877,140.447534 164.964469,140.378045 L164.964469,136.310278" id="Fill-31" stroke="#FFFFFF" stroke-width="0.5" fill="#FFFFFF"></path>
                    <path d="M174.73743,145.723336 C173.163352,145.723336 172.28581,144.015516 172.28581,142.641108 C172.28581,141.225274 173.149274,139.809439 174.681788,139.809439 C176.29743,139.809439 177.091844,141.405677 177.091844,142.808148 C177.091844,144.127099 176.241788,145.723336 174.73743,145.723336 Z M174.695196,145.987928 C176.562235,145.987928 178.150391,144.612852 178.150391,142.710596 C178.150391,141.821942 177.746145,140.919924 177.063687,140.349982 C176.395307,139.781377 175.55933,139.545516 174.695196,139.545516 C173.762011,139.545516 172.856313,139.822803 172.187263,140.475596 C171.588603,141.04487 171.24067,141.877399 171.24067,142.710596 C171.24067,144.612852 172.814749,145.987928 174.695196,145.987928 Z" id="Fill-32" stroke="#FFFFFF" stroke-width="0.5" fill="#FFFFFF"></path>
                    <path d="M182.81095,145.723336 C181.236201,145.723336 180.35933,144.015516 180.35933,142.641108 C180.35933,141.225274 181.222793,139.809439 182.755307,139.809439 C184.37095,139.809439 185.165363,141.405677 185.165363,142.808148 C185.165363,144.127099 184.315307,145.723336 182.81095,145.723336 Z M182.768715,145.987928 C184.635754,145.987928 186.223911,144.612852 186.223911,142.710596 C186.223911,141.821942 185.819665,140.919924 185.137207,140.349982 C184.468827,139.781377 183.632179,139.545516 182.768715,139.545516 C181.836201,139.545516 180.929832,139.822803 180.261453,140.475596 C179.662793,141.04487 179.31419,141.877399 179.31419,142.710596 C179.31419,144.612852 180.888268,145.987928 182.768715,145.987928 Z" id="Fill-33" stroke="#FFFFFF" stroke-width="0.5" fill="#FFFFFF"></path>
                    <path d="M189.184358,136.310278 C189.184358,136.198695 189.197765,136.08778 189.058994,136.08778 C188.961788,136.08778 188.836425,136.185332 188.766704,136.240789 C188.432179,136.463287 187.90324,136.601596 187.513073,136.670417 C187.429274,136.685117 187.317989,136.726543 187.317989,136.823426 C187.317989,137.00383 187.554637,136.962404 187.68067,136.962404 C188.34905,136.962404 188.223017,137.573771 188.223017,138.086919 L188.223017,144.404386 C188.223017,145.001722 188.34905,145.474112 187.596872,145.543601 C187.442682,145.556964 187.206704,145.528901 187.206704,145.738036 C187.206704,145.848951 187.303911,145.876345 187.401117,145.876345 C187.832849,145.876345 188.278659,145.820888 188.724469,145.820888 C189.142123,145.820888 189.587933,145.876345 190.033743,145.876345 C190.132291,145.876345 190.201341,145.834919 190.201341,145.723336 C190.201341,145.543601 189.949944,145.556964 189.811173,145.543601 C189.058994,145.474112 189.184358,145.001722 189.184358,144.404386 L189.184358,136.310278" id="Fill-34" stroke="#FFFFFF" stroke-width="0.5" fill="#FFFFFF"></path>
                    <path d="M198.286927,138.323448 C198.286927,138.100951 198.272849,137.670655 198.439777,137.503614 C198.648939,137.295816 199.345475,137.268422 199.637765,137.268422 C202.159777,137.268422 203.942346,138.947511 203.942346,141.530623 C203.942346,142.613713 203.538771,143.724197 202.786592,144.515969 C201.936536,145.390592 200.947709,145.612422 199.776536,145.612422 C198.56581,145.612422 198.286927,145.321771 198.286927,144.085673 L198.286927,138.323448 Z M197.186145,144.334897 C197.186145,145.22422 197.255866,145.528901 196.281117,145.528901 C196.141676,145.528901 195.918436,145.501507 195.918436,145.682578 C195.918436,145.820888 196.029721,145.876345 196.155084,145.876345 C196.448045,145.876345 196.726257,145.820888 197.033296,145.820888 C198.036201,145.820888 199.067263,145.876345 200.097654,145.876345 C201.449162,145.876345 202.675307,145.640484 203.719777,144.737798 C204.667039,143.904601 205.210726,142.682534 205.210726,141.405677 C205.210726,140.072695 204.51419,138.823233 203.454972,138.031462 C202.409832,137.253722 201.156872,136.948372 199.875084,136.948372 C199.317318,136.948372 195.876201,137.114744 195.876201,137.615197 C195.876201,137.698049 195.932514,137.768206 196.029721,137.768206 C196.169162,137.768206 196.433966,137.615197 196.726257,137.615197 C197.269274,137.615197 197.186145,138.184471 197.186145,138.600735 L197.186145,144.334897 Z" id="Fill-35" stroke="#FFFFFF" stroke-width="0.5" fill="#FFFFFF"></path>
                    <path d="M208.022346,138.336812 C208.426592,138.336812 208.635084,138.01743 208.635084,137.642592 C208.635084,137.309179 208.412514,136.976435 208.050503,136.976435 C207.674413,136.976435 207.423687,137.309179 207.423687,137.670655 C207.423687,138.031462 207.646927,138.336812 208.022346,138.336812 Z M208.510391,139.767345 C208.510391,139.670462 208.523799,139.545516 208.384358,139.545516 C208.273073,139.545516 208.203352,139.65643 208.134302,139.725919 C207.911061,139.989843 207.312402,140.349982 206.977877,140.447534 C206.852514,140.48896 206.65743,140.517022 206.65743,140.684063 C206.65743,140.766915 206.741229,140.794978 206.824358,140.794978 L207.005363,140.794978 C207.117318,140.794978 207.32581,140.809009 207.409609,140.905892 C207.563128,141.058233 207.54905,141.600112 207.54905,141.794547 L207.54905,144.404386 C207.54905,145.001722 207.674413,145.474112 206.922235,145.543601 C206.768715,145.556964 206.532067,145.528901 206.532067,145.738036 C206.532067,145.848951 206.629274,145.876345 206.727151,145.876345 C207.158212,145.876345 207.604693,145.820888 208.050503,145.820888 C208.468156,145.820888 208.913966,145.876345 209.359777,145.876345 C209.457654,145.876345 209.526704,145.834919 209.526704,145.723336 C209.526704,145.543601 209.275978,145.556964 209.137207,145.543601 C208.384358,145.474112 208.510391,145.001722 208.510391,144.404386 L208.510391,139.767345 Z" id="Fill-36" stroke="#FFFFFF" stroke-width="0.5" fill="#FFFFFF"></path>
                    <path d="M210.498771,145.071879 C210.498771,145.293709 210.471285,145.474112 210.693855,145.570996 C211.153073,145.806857 211.975642,145.987928 212.462346,145.987928 C213.646927,145.987928 215.109721,145.293709 215.109721,143.960058 C215.109721,141.697664 211.627039,142.432641 211.627039,140.809009 C211.627039,140.170247 212.337654,139.781377 212.908827,139.781377 C214.413184,139.781377 214.259665,141.086296 214.608268,141.086296 C214.844916,141.086296 214.747709,140.48896 214.747709,140.405439 C214.747709,140.197641 214.831508,139.892291 214.59419,139.781377 C214.259665,139.642399 213.521564,139.545516 213.159553,139.545516 C212.574302,139.545516 212.003799,139.65643 211.515084,140.003874 C211.069274,140.322587 210.776983,140.753552 210.776983,141.294094 C210.776983,142.419278 212.044693,142.766054 212.908827,143.044009 C213.577207,143.265839 214.246257,143.571188 214.246257,144.376323 C214.246257,145.266314 213.368045,145.738036 212.546145,145.738036 C210.652291,145.738036 211.223464,143.83578 210.722011,143.83578 C210.568492,143.83578 210.555084,144.030215 210.540335,144.140462 L210.498771,145.071879" id="Fill-37" stroke="#FFFFFF" stroke-width="0.5" fill="#FFFFFF"></path>
                    <path d="M217.780559,140.322587 C217.780559,139.933717 217.975642,140.017238 218.296089,140.017238 L219.076425,140.017238 C219.396201,140.017238 219.507486,140.087395 219.507486,139.79474 C219.507486,139.683825 219.507486,139.600973 219.382793,139.600973 L218.003128,139.600973 C217.808715,139.586942 217.780559,139.503422 217.780559,139.323018 L217.780559,138.336812 C217.780559,138.253291 217.76648,138.170439 217.669274,138.170439 C217.598883,138.170439 217.557318,138.239928 217.529832,138.295386 C217.208715,138.961543 216.80514,139.308318 216.20581,139.698525 C216.13676,139.753982 216.038883,139.809439 216.038883,139.906323 C216.038883,140.072695 216.400894,140.017238 216.471285,140.017238 C216.735419,140.017238 216.819218,139.975812 216.819218,140.26713 L216.819218,143.83578 C216.819218,144.391022 216.763575,145.099274 217.125587,145.556964 C217.362905,145.848951 217.753073,145.987928 218.129162,145.987928 C218.615866,145.987928 219.076425,145.778794 219.424358,145.460081 C219.522235,145.390592 219.70257,145.210188 219.70257,145.071879 C219.70257,145.029785 219.661006,144.974327 219.605363,144.974327 C219.494078,144.974327 219.117318,145.460081 218.602458,145.460081 C217.76648,145.460081 217.780559,144.432448 217.780559,143.83578 L217.780559,140.322587" id="Fill-38" stroke="#FFFFFF" stroke-width="0.5" fill="#FFFFFF"></path>
                    <path d="M221.355084,144.404386 C221.355084,145.001722 221.481117,145.474112 220.728268,145.543601 C220.574749,145.556964 220.338101,145.528901 220.338101,145.738036 C220.338101,145.848951 220.435978,145.876345 220.532514,145.876345 C220.965587,145.876345 221.411397,145.820888 221.856536,145.820888 C222.27419,145.820888 222.72,145.876345 223.16648,145.876345 C223.264358,145.876345 223.333408,145.834919 223.333408,145.723336 C223.333408,145.543601 223.082682,145.556964 222.94324,145.543601 C222.191061,145.474112 222.316425,145.001722 222.316425,144.404386 L222.316425,142.210812 C222.316425,141.65557 222.302346,141.294094 222.636872,140.822372 C222.803799,140.614574 223.041117,140.322587 223.348156,140.322587 C223.737654,140.322587 223.76581,140.850435 224.239106,140.850435 C224.573631,140.850435 224.823687,140.642637 224.823687,140.294525 C224.823687,139.87826 224.448268,139.628368 224.029944,139.628368 C223.068603,139.628368 222.525587,140.73952 222.386145,140.73952 C222.288939,140.73952 222.316425,140.503659 222.316425,140.447534 L222.316425,139.767345 C222.316425,139.670462 222.330503,139.545516 222.191061,139.545516 C222.079777,139.545516 222.010056,139.65643 221.940335,139.725919 C221.717095,139.989843 221.118436,140.349982 220.783911,140.447534 C220.658547,140.48896 220.464134,140.517022 220.464134,140.684063 C220.464134,140.766915 220.547263,140.794978 220.631061,140.794978 L220.811397,140.794978 C220.923352,140.794978 221.132514,140.809009 221.216313,140.905892 C221.369832,141.058233 221.355084,141.600112 221.355084,141.794547 L221.355084,144.404386" id="Fill-39" stroke="#FFFFFF" stroke-width="0.5" fill="#FFFFFF"></path>
                    <path d="M226.952849,138.336812 C227.357095,138.336812 227.566257,138.01743 227.566257,137.642592 C227.566257,137.309179 227.343017,136.976435 226.981676,136.976435 C226.604916,136.976435 226.35352,137.309179 226.35352,137.670655 C226.35352,138.031462 226.57676,138.336812 226.952849,138.336812 Z M227.440223,139.767345 C227.440223,139.670462 227.454972,139.545516 227.315531,139.545516 C227.203575,139.545516 227.133855,139.65643 227.064804,139.725919 C226.841564,139.989843 226.242235,140.349982 225.907709,140.447534 C225.782346,140.48896 225.587933,140.517022 225.587933,140.684063 C225.587933,140.766915 225.671061,140.794978 225.75419,140.794978 L225.935866,140.794978 C226.047151,140.794978 226.256983,140.809009 226.340112,140.905892 C226.492961,141.058233 226.479553,141.600112 226.479553,141.794547 L226.479553,144.404386 C226.479553,145.001722 226.604916,145.474112 225.852737,145.543601 C225.699218,145.556964 225.46257,145.528901 225.46257,145.738036 C225.46257,145.848951 225.559777,145.876345 225.657654,145.876345 C226.089385,145.876345 226.535196,145.820888 226.981676,145.820888 C227.398659,145.820888 227.84514,145.876345 228.290279,145.876345 C228.387486,145.876345 228.457207,145.834919 228.457207,145.723336 C228.457207,145.543601 228.207151,145.556964 228.067709,145.543601 C227.315531,145.474112 227.440223,145.001722 227.440223,144.404386 L227.440223,139.767345 Z" id="Fill-40" stroke="#FFFFFF" stroke-width="0.5" fill="#FFFFFF"></path>
                    <path d="M234.876201,140.614574 C234.876201,140.433502 234.945251,140.128152 234.764246,140.003874 C234.319106,139.698525 233.580335,139.545516 233.051397,139.545516 C231.184358,139.545516 229.429274,141.016807 229.429274,142.891668 C229.429274,144.570758 230.836425,145.987928 232.549274,145.987928 C233.301453,145.987928 233.998659,145.76543 234.569832,145.307072 C234.666369,145.22422 234.987486,144.946265 234.987486,144.807287 C234.987486,144.75183 234.945251,144.696372 234.889609,144.696372 C234.820559,144.696372 234.722011,144.82065 234.681117,144.862744 C234.249385,145.279677 233.678212,145.474112 233.078883,145.474112 C231.518212,145.474112 230.474413,144.030215 230.474413,142.613713 C230.474413,141.766484 230.836425,140.919924 231.477318,140.364013 C231.83933,140.059332 232.396425,139.79474 232.883799,139.79474 C234.012737,139.79474 234.263464,141.322157 234.709274,141.322157 C234.96,141.322157 234.876201,140.725489 234.876201,140.614574" id="Fill-41" stroke="#FFFFFF" stroke-width="0.5" fill="#FFFFFF"></path>
                    <path d="M237.549721,140.322587 C237.549721,139.933717 237.744804,140.017238 238.065922,140.017238 L238.845587,140.017238 C239.166034,140.017238 239.277318,140.087395 239.277318,139.79474 C239.277318,139.683825 239.277318,139.600973 239.152626,139.600973 L237.772961,139.600973 C237.577207,139.586942 237.549721,139.503422 237.549721,139.323018 L237.549721,138.336812 C237.549721,138.253291 237.535642,138.170439 237.438436,138.170439 C237.368715,138.170439 237.32648,138.239928 237.298994,138.295386 C236.979218,138.961543 236.574302,139.308318 235.975642,139.698525 C235.905922,139.753982 235.808715,139.809439 235.808715,139.906323 C235.808715,140.072695 236.170726,140.017238 236.240447,140.017238 C236.505251,140.017238 236.58905,139.975812 236.58905,140.26713 L236.58905,143.83578 C236.58905,144.391022 236.533408,145.099274 236.895419,145.556964 C237.132067,145.848951 237.521564,145.987928 237.898324,145.987928 C238.385698,145.987928 238.845587,145.778794 239.19352,145.460081 C239.291397,145.390592 239.472402,145.210188 239.472402,145.071879 C239.472402,145.029785 239.430838,144.974327 239.375196,144.974327 C239.263911,144.974327 238.887151,145.460081 238.37162,145.460081 C237.535642,145.460081 237.549721,144.432448 237.549721,143.83578 L237.549721,140.322587" id="Fill-42" stroke="#FFFFFF" stroke-width="0.5" fill="#FFFFFF"></path>
                    <path d="M90.9948603,12.7084305 C90.9948603,12.7084305 85.0732961,17.1042646 88.3327374,22.35 C90.6945251,26.1518386 93.4880447,25.855843 94.6732961,29.2186996 C95.8585475,32.5815561 95.4315084,34.9688969 95.4315084,34.9688969 C95.4315084,34.9688969 98.922905,32.6223139 97.4292737,27.7440673 C96.3452514,24.204148 93.3693855,23.2914395 90.9988827,20.197852 C88.5284916,16.9726368 90.9948603,12.7084305 90.9948603,12.7084305" id="Fill-43" fill="#D32E12"></path>
                    <path d="M95.1546369,6.77515695 C95.1546369,6.77515695 88.3830168,11.0173139 92.326257,18.0483767 C94.6551955,22.2016682 99.3512849,22.1468789 100.903911,26.5520673 C102.455866,30.9572556 101.91419,35.0383857 101.91419,35.0383857 C101.91419,35.0383857 105.871508,31.335435 103.860335,24.9598386 C102.20648,19.7181121 97.436648,18.5748879 95.3208939,16.1200628 C91.8281564,12.0676637 95.1546369,6.77515695 95.1546369,6.77515695" id="Fill-44" fill="#D32E12"></path>
                    <path d="M101.208939,0.4002287 C101.208939,0.4002287 91.6692737,4.61833184 95.7278212,12.9095471 C97.5056983,16.5410045 105.644916,18.7385874 107.430168,23.8045874 C109.216089,28.8699193 107.989274,34.9481839 107.989274,34.9481839 C107.989274,34.9481839 113.29743,29.6336278 110.842458,22.3386413 C108.388156,15.0443229 101.568268,13.4460807 99.1347486,10.6224305 C95.1177654,5.96200448 101.208939,0.4002287 101.208939,0.4002287" id="Fill-45" fill="#D32E12"></path>
                    <polyline id="Fill-46" fill="#003366" points="125.507263 35.0163363 110.960447 45.9554753 116.277989 63.3283408 101.344358 52.9190538 86.4107263 63.3283408 91.7282682 45.9554753 77.1807821 35.0163363 125.507263 35.0163363"></polyline>
                </g>
            </g>
        </g>
    </g>
</svg>