<svg id="Layer_1" data-name="Layer 1" xmlns="http://www.w3.org/2000/svg" viewBox="0 0 170.2 85.86"><defs><style>.cls-1{fill:#cccc64;}.cls-2,.cls-4,.cls-6,.cls-8{fill:none;}.cls-2,.cls-6,.cls-8{stroke:#582e8d;}.cls-10,.cls-11,.cls-12,.cls-2,.cls-4,.cls-5,.cls-6,.cls-8{stroke-miterlimit:10;}.cls-2{stroke-width:2.5px;}.cls-3{font-size:9.63px;fill:#231f20;font-family:OldEnglishTextMT, Old English Text MT;}.cls-12,.cls-4,.cls-5{stroke:#7bafd6;}.cls-12,.cls-4,.cls-6{stroke-width:3px;}.cls-10,.cls-11,.cls-12,.cls-5,.cls-9{fill:#fff;}.cls-10,.cls-11,.cls-5{stroke-width:2px;}.cls-7{fill:#cccc62;}.cls-10{stroke:#5d2871;}.cls-11{stroke:#5c2871;}</style></defs><path class="cls-1" d="M250,125.38a3.85,3.85,0,0,0-2.53,7.28" transform="translate(-199.4 -96.07)"/><path class="cls-2" d="M227.64,130c4.39-8,36.58,1.09,71.9,20.4a286.92,286.92,0,0,1,29.33,18.28" transform="translate(-199.4 -96.07)"/><path class="cls-2" d="M258.21,168.34A234.15,234.15,0,0,1,279,154c27.34-16.8,52.61-25.37,56.43-19.15" transform="translate(-199.4 -96.07)"/><text class="cls-3" transform="translate(41.72 83.78) scale(1.23 1)">The Final Frontier</text><path class="cls-4" d="M289.83,168" transform="translate(-199.4 -96.07)"/><path class="cls-4" d="M324.42,177.85" transform="translate(-199.4 -96.07)"/><path class="cls-4" d="M321.18,168" transform="translate(-199.4 -96.07)"/><path class="cls-5" d="M244.41,167.78a52.19,52.19,0,0,1,1.89-5.24c10.19-24.22,36.06-36.45,57.78-27.31,13.87,5.83,22.7,19,24.62,34" transform="translate(-199.4 -96.07)"/><line class="cls-6" y1="72.4" x2="170.2" y2="72.4"/><polygon class="cls-7" points="59.12 0.64 60.34 0 60.1 1.36 61.09 2.32 59.73 2.51 59.12 3.75 58.51 2.51 57.15 2.32 58.13 1.36 57.9 0 59.12 0.64"/><polygon class="cls-7" points="117.15 4.44 118.37 3.8 118.14 5.16 119.12 6.12 117.76 6.32 117.15 7.55 116.54 6.32 115.18 6.12 116.17 5.16 115.93 3.8 117.15 4.44"/><polygon class="cls-7" points="47.82 15.36 49.03 14.72 48.8 16.07 49.79 17.03 48.42 17.23 47.82 18.46 47.21 17.23 45.85 17.03 46.83 16.07 46.6 14.72 47.82 15.36"/><polygon class="cls-7" points="151.57 47.07 152.79 46.43 152.56 47.78 153.54 48.74 152.18 48.94 151.57 50.17 150.96 48.94 149.6 48.74 150.59 47.78 150.35 46.43 151.57 47.07"/><polygon class="cls-7" points="104.3 21.6 105.52 20.96 105.28 22.32 106.27 23.28 104.91 23.48 104.3 24.71 103.69 23.48 102.33 23.28 103.31 22.32 103.08 20.96 104.3 21.6"/><path class="cls-8" d="M289.29,154a3.15,3.15,0,1,1,0,6.25h-.14a4.92,4.92,0,0,1-4.59,3,4.83,4.83,0,0,1-4.93-4.73,4.41,4.41,0,0,1,0-.52,2.51,2.51,0,0,1-2.08-2.36,2.63,2.63,0,0,1,2.78-2.44" transform="translate(-199.4 -96.07)"/><line class="cls-8" x1="82.82" y1="54.38" x2="82.82" y2="59.36"/><line class="cls-8" x1="85.36" y1="54.19" x2="85.36" y2="59.07"/><line class="cls-8" x1="87.51" y1="54.38" x2="87.51" y2="59.36"/><polygon class="cls-7" points="148.48 14.73 149.7 14.09 149.47 15.45 150.45 16.41 149.09 16.6 148.48 17.84 147.88 16.6 146.51 16.41 147.5 15.45 147.27 14.09 148.48 14.73"/><polygon class="cls-7" points="20.01 18.53 21.23 17.89 21 19.25 21.98 20.21 20.62 20.41 20.01 21.64 19.4 20.41 18.04 20.21 19.03 19.25 18.79 17.89 20.01 18.53"/><path class="cls-1" d="M326.61,145.33a3.86,3.86,0,0,0,4.42,6.32" transform="translate(-199.4 -96.07)"/><path class="cls-2" d="M265,168.49c-25-16.08-40.95-32-37.38-38.48" transform="translate(-199.4 -96.07)"/><path class="cls-2" d="M335.42,134.89c3.16,5.14-9.3,18.77-29.15,32.83" transform="translate(-199.4 -96.07)"/><path class="cls-1" d="M331,151.65a3.86,3.86,0,0,0-4.42-6.32" transform="translate(-199.4 -96.07)"/><path class="cls-1" d="M247.46,132.66a3.85,3.85,0,1,0,2.53-7.28" transform="translate(-199.4 -96.07)"/><rect class="cls-9" x="75.19" y="44.22" width="14.34" height="3.42"/><path class="cls-9" d="M281.09,106.9,279,112.11a2.43,2.43,0,0,0,2.26,3.34h4.17a2.44,2.44,0,0,0,2.27-3.34l-2.09-5.21A2.43,2.43,0,0,0,281.09,106.9Z" transform="translate(-199.4 -96.07)"/><rect class="cls-9" x="281.9" y="113.83" width="10.12" height="27.71" transform="translate(-224.21 -6.44) rotate(-17.03)"/><path class="cls-10" d="M279.65,113.79l-7,27.33,9.11-.74a30.51,30.51,0,0,1,4.78,0l9.19.65" transform="translate(-199.4 -96.07)"/><path class="cls-11" d="M279.65,113.79" transform="translate(-199.4 -96.07)"/><path class="cls-11" d="M283,100.59" transform="translate(-199.4 -96.07)"/><path class="cls-10" d="M274.88,141.28l-.5,3.31Z" transform="translate(-199.4 -96.07)"/><path class="cls-10" d="M287.34,113.81l9.21,28.31c1.69,5.13-15.89,5.44-22.17,2.47-.35-.17,8.95-1.06,13.39-.9a1.86,1.86,0,0,0,2-2l-.9-1.12,6.67.06" transform="translate(-199.4 -96.07)"/><line class="cls-10" x1="83.68" y1="5.55" x2="89.71" y2="18.22"/><line class="cls-10" x1="79.07" y1="17.75" x2="88.64" y2="17.75"/><line class="cls-5" x1="79.29" y1="22.06" x2="86.12" y2="22.06"/><line class="cls-5" x1="78.19" y1="27" x2="86.96" y2="27"/><line class="cls-5" x1="76.51" y1="32.09" x2="87.85" y2="32.09"/><line class="cls-12" x1="75.03" y1="38.43" x2="88.58" y2="38.43"/><line class="cls-10" x1="80.19" y1="18.36" x2="73.22" y2="45.52"/><line class="cls-10" x1="83.94" y1="5.62" x2="78.27" y2="18.36"/></svg>